<svg xmlns="http://www.w3.org/2000/svg" width="54" height="50" fill="none" viewBox="0 0 54 50">
  <path fill="#030047" d="M11.647 3.48c-4.141 16.855 6.178 29.848 18.82 35.861 1.717-7.488 1.245-27.757-18.82-35.861Z"/>
  <path fill="#FFCC3E" d="M17 13.5c4 4 8.8 14.2 12 23-4-8-6.5-13-12-23Z"/>
  <path fill="#030047" d="M38.517 11.17c-10.73 6.444-12.138 18.327-8.792 27.853 4.705-2.926 14.838-13.466 8.792-27.853Z"/>
  <path fill="#FFCC3E" d="M36.108 19c-.015 4.08-2.796 11.72-5.675 17.828 2.063-6.112 3.352-9.932 5.675-17.827Z"/>
  <path fill="#030047" d="M4.676 27.93C9.396 37.906 19.7 40.174 28.35 38.067c-2.158-4.383-10.525-14.19-23.674-10.137Z"/>
  <path fill="#FFCC3E" d="M11.337 30.725c3.578.368 10.04 3.473 15.149 6.53-5.184-2.341-8.423-3.805-15.15-6.53Z"/>
</svg>
