<svg xmlns="http://www.w3.org/2000/svg" width="65" height="61" fill="none" viewBox="0 0 65 61">
  <path fill="#030047" d="M50.728 4.245c5.053 20.563-7.536 36.413-22.96 43.75-2.094-9.136-1.517-33.862 22.96-43.75Z"/>
  <path fill="#FFCC3E" d="M44.198 16.47c-4.88 4.88-10.735 17.323-14.64 28.059 4.88-9.76 7.93-15.86 14.64-28.06Z"/>
  <path fill="#030047" d="M17.948 13.627c13.091 7.861 14.808 22.358 10.726 33.98-5.74-3.57-18.102-16.428-10.726-33.98Z"/>
  <path fill="#FFCC3E" d="M20.887 23.18c.018 4.977 3.412 14.296 6.923 21.749-2.516-7.456-4.088-12.116-6.923-21.749Z"/>
  <path fill="#030047" d="M59.234 34.073c-5.76 12.171-18.33 14.938-28.883 12.368 2.634-5.347 12.84-17.313 28.883-12.368Z"/>
  <path fill="#FFCC3E" d="M32.626 45.45c6.234-3.73 14.116-7.518 18.481-7.967-8.205 3.325-12.158 5.11-18.481 7.966Z"/>
</svg>
